<svg xmlns="http://www.w3.org/2000/svg" width="144" height="29" viewBox="0 0 144 29" fill="none">
    <path d="M29 13.5C29 20.9558 22.732 27 15 27C7.26801 27 1 20.9558 1 13.5C1 6.04416 7.26801 0 15 0C22.732 0 29 6.04416 29 13.5Z" fill="#65A5FF"/>
    <path fill-rule="evenodd" clip-rule="evenodd" d="M10.6043 23.1947C10.6043 26.0637 8.23042 28.3894 5.30213 28.3894C2.37384 28.3894 0 26.0637 0 23.1947C0 20.3257 2.37384 18 5.30213 18C8.23042 18 10.6043 20.3257 10.6043 23.1947ZM5.30213 26.1669C6.97758 26.1669 8.3358 24.8362 8.3358 23.1947C8.3358 21.5532 6.97758 20.2225 5.30213 20.2225C3.62668 20.2225 2.26847 21.5532 2.26847 23.1947C2.26847 24.8362 3.62668 26.1669 5.30213 26.1669Z" fill="#06076A"/>
    <path fill-rule="evenodd" clip-rule="evenodd" d="M52.0497 26.0599C53.6113 24.7665 54.392 22.9641 54.392 20.6527C54.392 18.8563 53.9068 17.3952 52.9364 16.2694C51.9772 15.1437 50.215 14.0899 47.6496 13.1078C46.1216 12.5209 44.9839 11.988 44.2366 11.509C43.5005 11.018 42.9763 10.485 42.664 9.91021C42.3517 9.32336 42.1955 8.57486 42.1955 7.66468C42.1955 6.43115 42.6193 5.46707 43.467 4.77246C44.3147 4.07785 45.4914 3.73055 46.9971 3.73055C48.9044 3.73055 50.8675 4.18563 52.8862 5.09581L53.773 2.43712C51.7318 1.47904 49.4955 1 47.0641 1C44.7329 1 42.8591 1.5988 41.4426 2.79641C40.0261 3.99402 39.3179 5.6048 39.3179 7.62875C39.3179 9.55689 39.8031 11.1197 40.7734 12.3174C41.7549 13.515 43.3834 14.5509 45.6587 15.4252C47.2871 16.0479 48.4973 16.6049 49.2892 17.0958C50.0923 17.5868 50.6611 18.1258 50.9957 18.7126C51.3414 19.2875 51.5143 20.03 51.5143 20.9402C51.5143 22.3174 51.0348 23.3952 50.0756 24.1737C49.1163 24.9402 47.6887 25.3234 45.7925 25.3234C44.6326 25.3234 43.4614 25.1917 42.2792 24.9282C41.0969 24.6647 40.0038 24.3055 39 23.8503V26.7964C40.5615 27.5988 42.7922 28 45.6922 28C48.369 28 50.4882 27.3534 52.0497 26.0599ZM72.1067 20.3356L74.7696 27.6408H77.7142L68.0942 1.26946H65.7018L56.0316 27.6408H58.9092L61.5428 20.3356H61.5415L61.7942 19.6382L61.9207 19.2875L63.1586 15.8739H63.1597L65.8021 8.40121C66.2594 7.02396 66.6107 5.76049 66.8561 4.61078C67.2465 6.10779 67.6258 7.37127 67.9938 8.40121L70.5472 15.707L70.5529 15.7068L70.7177 16.1947L70.838 16.539H70.8338L72.1153 20.3356H72.1067ZM91.8346 13.8803H100.15V26.6528C98.8558 27.0958 97.5397 27.4312 96.2013 27.6587C94.8628 27.8863 93.3125 28 91.5502 28C87.8472 28 84.964 26.8204 82.9006 24.4611C80.8372 22.0899 79.8055 18.7725 79.8055 14.509C79.8055 11.7785 80.3129 9.38923 81.328 7.34133C82.3541 5.28145 83.8264 3.71258 85.7447 2.63473C87.6632 1.54491 89.9106 1 92.4871 1C95.0971 1 97.5286 1.51497 99.7816 2.54491L98.6774 5.23952C96.4689 4.23354 94.3441 3.73055 92.3031 3.73055C89.3251 3.73055 86.9995 4.68264 85.3265 6.58683C83.6535 8.49103 82.817 11.1317 82.817 14.509C82.817 18.054 83.62 20.7426 85.2261 22.5749C86.8434 24.4072 89.2135 25.3234 92.3365 25.3234C94.0319 25.3234 95.6882 25.1138 97.3054 24.6946V16.6108H91.8346V13.8803ZM108.565 19.2875L108.366 19.8397L108.186 20.3356H108.187L105.554 27.6408H102.676L112.346 1.26946H114.739L124.359 27.6408H121.414L118.751 20.3356H118.753L117.478 16.539H117.482L117.384 16.2563L117.254 15.87H117.249L114.638 8.40121C114.27 7.37127 113.891 6.10779 113.501 4.61078C113.255 5.76049 112.904 7.02396 112.446 8.40121L109.715 16.1257L108.567 19.2875H108.565ZM144 27.6408H140.771L134.196 16.0899L127.504 27.6408H124.492L132.624 13.9162L125.045 1.37725H128.19L134.263 11.7785L140.386 1.37725H143.414L135.835 13.8084L144 27.6408Z" fill="#06076A"/>
</svg>
